<svg width="12" height="13" viewBox="0 0 12 13" fill="none" xmlns="http://www.w3.org/2000/svg">
<path d="M0 4.99524C0 3.93434 0.421441 2.9169 1.17161 2.16673C1.92178 1.41656 2.93923 0.995117 4.00013 0.995117V4.99524H0Z" fill="black"/>
<path d="M6.66675 3.66162C6.79862 3.66162 6.92753 3.62252 7.03718 3.54926C7.14683 3.47599 7.23229 3.37186 7.28275 3.25003C7.33322 3.1282 7.34642 2.99413 7.32069 2.8648C7.29497 2.73546 7.23147 2.61666 7.13822 2.52341C7.04497 2.43017 6.92617 2.36666 6.79683 2.34094C6.66749 2.31521 6.53343 2.32841 6.4116 2.37888C6.28976 2.42934 6.18563 2.5148 6.11237 2.62445C6.0391 2.73409 6 2.863 6 2.99487C6 3.17171 6.07025 3.3413 6.19529 3.46634C6.32033 3.59138 6.48992 3.66162 6.66675 3.66162Z" fill="black"/>
<path d="M9.33277 3.66193C9.33277 4.3623 9.19482 5.05582 8.9268 5.70288C8.65878 6.34994 8.26593 6.93787 7.77069 7.43311C6.77051 8.43329 5.41398 8.99518 3.99951 8.99518V12.9953C8.41777 12.9953 11.9994 10.0804 11.9994 5.66181C11.9994 3.92031 10.8864 2.0243 9.33277 1.2998V3.66193Z" fill="#FB3640"/>
</svg>
