<svg width="990" height="320" viewBox="0 0 990 320" fill="none" xmlns="http://www.w3.org/2000/svg">
<g clip-path="url(#clip0_681:1908)">
<path d="M457 228.15L408.89 91H450.63L494.13 228.14L457 228.15ZM448.35 283.3L468.03 228.15L481.82 196.56L515.94 91H555.3L487.61 283.3H448.35Z" fill="black"/>
<path d="M601.94 230.66C587.9 230.66 576.973 226.993 569.16 219.66C561.347 212.327 557.437 202.773 557.43 191C557.43 178.053 561.923 167.943 570.91 160.67C579.897 153.397 594.417 149.093 614.47 147.76L643.3 145.37L647.57 167.44L618.48 169.82C610.787 170.4 605.25 172.153 601.87 175.08C598.49 178.007 596.8 182.007 596.8 187.08C596.8 192.087 598.344 195.95 601.43 198.67C604.517 201.39 609.04 202.777 615 202.83C618.844 202.786 622.655 202.111 626.28 200.83C630.268 199.449 633.877 197.155 636.82 194.13V144C636.82 137.74 635.794 132.81 633.74 129.21C631.528 125.486 627.993 122.733 623.84 121.5C619.294 119.96 613.213 119.187 605.6 119.18C599.605 119.232 593.619 119.673 587.68 120.5C581.177 121.339 574.759 122.745 568.5 124.7V94.64C575.707 92.6155 583.063 91.1709 590.5 90.32C597.882 89.3979 605.311 88.917 612.75 88.88C627.29 88.88 639.22 90.6767 648.54 94.27C657.42 97.4843 664.776 103.905 669.16 112.27C673.587 120.67 675.8 132.097 675.8 146.55V228.16H642.93L640.17 214.49H638.29C634.331 219.983 628.898 224.244 622.62 226.78C616.046 229.41 609.021 230.728 601.94 230.66Z" fill="black"/>
<path d="M753.74 285.81C746.115 285.788 738.497 285.351 730.92 284.5C723.134 283.651 715.424 282.203 707.86 280.17V249C715.234 251.022 722.729 252.571 730.3 253.64C737.025 254.6 743.807 255.101 750.6 255.14C763.967 255.14 773.683 252.633 779.75 247.62C785.817 242.607 788.847 234.25 788.84 222.55V213.55H787C782.999 218.455 777.911 222.361 772.14 224.96C765.631 227.798 758.579 229.177 751.48 229C742.267 229.041 733.215 226.591 725.28 221.91C717.18 217.19 710.64 209.92 705.66 200.1C700.68 190.28 698.197 177.683 698.21 162.31C698.21 138.657 704.643 120.5 717.51 107.84C730.377 95.18 749.89 88.8467 776.05 88.84C781.903 88.84 787.943 89.1333 794.17 89.72C800.397 90.3067 806.473 91.1633 812.4 92.29C817.966 93.3148 823.455 94.718 828.83 96.49V215.24C828.83 240.06 822.643 258.027 810.27 269.14C797.897 280.253 779.053 285.81 753.74 285.81ZM766.65 196.56C770.709 196.552 774.736 195.852 778.56 194.49C782.385 193.17 785.888 191.057 788.84 188.29V120.84C786.377 120.295 783.887 119.878 781.38 119.59C778.446 119.251 775.494 119.084 772.54 119.09C761.513 119.09 753.073 122.16 747.22 128.3C741.367 134.44 738.44 144.673 738.44 159C738.44 168.7 739.61 176.283 741.95 181.75C744.29 187.217 747.57 191.063 751.79 193.29C756.403 195.574 761.504 196.697 766.65 196.56Z" fill="black"/>
<path d="M919.21 230.78C905.497 230.78 893.65 228.17 883.67 222.95C873.675 217.719 865.582 209.472 860.54 199.38C855.1 188.887 852.383 175.743 852.39 159.95C852.39 143.99 855.057 130.747 860.39 120.22C865.298 110.097 873.344 101.83 883.33 96.65C893.33 91.47 905.303 88.88 919.25 88.88C933.197 88.88 945.167 91.49 955.16 96.71C965.125 101.919 973.163 110.178 978.1 120.28C983.433 130.773 986.1 143.913 986.1 159.7C986.1 175.487 983.383 188.693 977.95 199.32C972.91 209.467 964.784 217.757 954.74 223C944.76 228.187 932.917 230.78 919.21 230.78ZM919.21 200.44C924.238 200.587 929.207 199.33 933.56 196.81C937.56 194.39 940.59 190.233 942.65 184.34C944.71 178.447 945.754 170.36 945.78 160.08C945.78 149.553 944.737 141.323 942.65 135.39C940.563 129.457 937.533 125.257 933.56 122.79C929.223 120.225 924.247 118.942 919.21 119.09C914.179 118.942 909.206 120.199 904.85 122.72C900.85 125.153 897.82 129.313 895.76 135.2C893.7 141.087 892.657 149.213 892.63 159.58C892.63 170.107 893.673 178.337 895.76 184.27C897.847 190.203 900.877 194.383 904.85 196.81C909.206 199.331 914.179 200.588 919.21 200.44Z" fill="black"/>
<path d="M0 106.67C0 78.3794 11.2384 51.2474 31.2429 31.2429C51.2474 11.2384 78.3794 0 106.67 0V106.67H0Z" fill="black"/>
<path d="M177.78 71.11C181.297 71.11 184.734 70.0672 187.658 68.1135C190.582 66.1598 192.861 63.383 194.207 60.1341C195.552 56.8852 195.904 53.3103 195.218 49.8613C194.532 46.4123 192.839 43.2442 190.352 40.7576C187.866 38.2711 184.698 36.5777 181.249 35.8916C177.8 35.2056 174.225 35.5577 170.976 36.9034C167.727 38.2492 164.95 40.5281 162.996 43.452C161.043 46.3759 160 49.8134 160 53.33C160 58.0456 161.873 62.568 165.208 65.9024C168.542 69.2368 173.064 71.11 177.78 71.11Z" fill="black"/>
<path d="M248.89 71.11C248.89 89.7866 245.211 108.28 238.064 125.535C230.917 142.79 220.441 158.468 207.235 171.675C180.563 198.346 144.389 213.33 106.67 213.33V320C224.49 320 320 242.27 320 124.44C320 78 290.32 27.44 248.89 8.12V71.11Z" fill="#FB3640"/>
</g>
<defs>
<clipPath id="clip0_681:1908">
<rect width="990" height="320" fill="white"/>
</clipPath>
</defs>
</svg>
